<?xml version="1.0"?>
<svg xmlns="http://www.w3.org/2000/svg" width="788" height="93" viewBox="0 0 788 93" fill="none">
<path d="M21.737 63.51C18.439 63.51 15.447 62.745 12.761 61.215C10.109 59.651 8.018 57.475 6.488 54.687C4.958 51.899 4.193 48.72 4.193 45.15C4.193 41.546 4.958 38.367 6.488 35.613C8.018 32.825 10.109 30.666 12.761 29.136C15.447 27.572 18.439 26.79 21.737 26.79C25.035 26.79 28.01 27.572 30.662 29.136C33.348 30.666 35.456 32.825 36.986 35.613C38.516 38.367 39.281 41.546 39.281 45.15C39.281 48.72 38.516 51.899 36.986 54.687C35.456 57.475 33.348 59.651 30.662 61.215C28.01 62.745 25.035 63.51 21.737 63.51ZM21.992 57.288C23.998 57.288 25.783 56.795 27.347 55.809C28.911 54.823 30.118 53.412 30.968 51.576C31.852 49.74 32.294 47.598 32.294 45.15C32.294 42.668 31.852 40.526 30.968 38.724C30.118 36.888 28.911 35.477 27.347 34.491C25.783 33.505 23.998 33.012 21.992 33.012H21.482C19.476 33.012 17.691 33.505 16.127 34.491C14.563 35.477 13.339 36.888 12.455 38.724C11.605 40.526 11.18 42.668 11.18 45.15C11.18 47.598 11.605 49.74 12.455 51.576C13.339 53.412 14.563 54.823 16.127 55.809C17.691 56.795 19.476 57.288 21.482 57.288H21.992ZM44.7639 37.5H51.3939V40.713C52.0059 39.659 52.9919 38.775 54.3519 38.061C55.7459 37.347 57.3099 36.99 59.0439 36.99C61.2539 36.99 63.2259 37.551 64.9599 38.673C66.7279 39.761 68.1049 41.325 69.0909 43.365C70.0769 45.371 70.5699 47.666 70.5699 50.25C70.5699 52.868 70.0599 55.197 69.0399 57.237C68.0539 59.243 66.6769 60.807 64.9089 61.929C63.1409 63.051 61.1349 63.612 58.8909 63.612C57.1909 63.612 55.6779 63.272 54.3519 62.592C53.0599 61.912 52.0739 61.062 51.3939 60.042V73.2H44.7639V37.5ZM57.8199 58.155C59.0099 58.155 60.0639 57.832 60.9819 57.186C61.9339 56.54 62.6649 55.622 63.1749 54.432C63.7189 53.242 63.9909 51.865 63.9909 50.301C63.9909 48.737 63.7189 47.36 63.1749 46.17C62.6649 44.98 61.9339 44.062 60.9819 43.416C60.0639 42.77 59.0099 42.447 57.8199 42.447H57.5649C56.4089 42.447 55.3549 42.77 54.4029 43.416C53.4509 44.062 52.7029 44.98 52.1589 46.17C51.6149 47.36 51.3429 48.737 51.3429 50.301C51.3429 51.831 51.6149 53.208 52.1589 54.432C52.7029 55.622 53.4509 56.54 54.4029 57.186C55.3549 57.832 56.4089 58.155 57.5649 58.155H57.8199ZM86.9042 63.561C84.6262 63.561 82.5352 63.017 80.6312 61.929C78.7612 60.807 77.2822 59.243 76.1942 57.237C75.1062 55.197 74.5622 52.868 74.5622 50.25C74.5622 47.666 75.0892 45.371 76.1432 43.365C77.1972 41.325 78.6592 39.744 80.5292 38.622C82.4332 37.5 84.5582 36.939 86.9042 36.939C89.0462 36.939 90.9842 37.398 92.7182 38.316C94.4522 39.2 95.8462 40.492 96.9002 42.192C97.9882 43.892 98.6342 45.898 98.8382 48.21C98.9402 49.502 98.9742 50.879 98.9402 52.341H80.9882C81.0562 53.463 81.3622 54.466 81.9062 55.35C82.4502 56.234 83.1472 56.931 83.9972 57.441C84.8812 57.917 85.8332 58.155 86.8532 58.155H87.1592C88.3832 58.155 89.4202 57.849 90.2702 57.237C91.1542 56.625 91.7322 55.86 92.0042 54.942H98.5832C97.9712 57.492 96.6452 59.566 94.6052 61.164C92.5652 62.762 89.9982 63.561 86.9042 63.561ZM92.3612 47.241C92.2592 46.221 91.9702 45.354 91.4942 44.64C91.0182 43.892 90.3892 43.331 89.6072 42.957C88.8252 42.549 87.9582 42.345 87.0062 42.345H86.7002C85.2722 42.345 84.0482 42.77 83.0282 43.62C82.0082 44.47 81.3792 45.677 81.1412 47.241H92.3612ZM104.43 37.5H111.06V40.509C111.774 39.387 112.76 38.52 114.018 37.908C115.276 37.262 116.738 36.939 118.404 36.939C120.24 36.939 121.855 37.347 123.249 38.163C124.643 38.979 125.714 40.152 126.462 41.682C127.244 43.178 127.635 44.912 127.635 46.884V63H121.005V48.159C121.005 46.969 120.835 45.966 120.495 45.15C120.155 44.334 119.645 43.722 118.965 43.314C118.319 42.872 117.503 42.651 116.517 42.651H116.415C114.885 42.651 113.61 43.263 112.59 44.487C111.57 45.711 111.06 47.292 111.06 49.23V63H104.43V37.5ZM145.074 27.3H153.132L166.902 63H159.609L148.491 33.93H149.256L138.189 63H130.947L145.074 27.3ZM140.076 49.077H159.558V55.197H138.24L140.076 49.077ZM171.334 27.3H178.219V63H171.334V27.3Z" fill="white"/>
<path d="M216.182 27.3H228.422C232.026 27.3 235.188 27.98 237.908 29.34C240.628 30.7 242.736 32.723 244.232 35.409C245.762 38.061 246.527 41.308 246.527 45.15C246.527 48.992 245.796 52.256 244.334 54.942C242.872 57.594 240.798 59.6 238.112 60.96C235.426 62.32 232.281 63 228.677 63H216.182V27.3ZM227.912 56.88C230.326 56.88 232.4 56.506 234.134 55.758C235.868 55.01 237.211 53.769 238.163 52.035C239.149 50.301 239.642 48.006 239.642 45.15C239.642 40.934 238.605 37.925 236.531 36.123C234.491 34.321 231.618 33.42 227.912 33.42H223.067V56.88H227.912ZM263.137 63.561C260.859 63.561 258.768 63.017 256.864 61.929C254.994 60.807 253.515 59.243 252.427 57.237C251.339 55.197 250.795 52.868 250.795 50.25C250.795 47.666 251.322 45.371 252.376 43.365C253.43 41.325 254.892 39.744 256.762 38.622C258.666 37.5 260.791 36.939 263.137 36.939C265.279 36.939 267.217 37.398 268.951 38.316C270.685 39.2 272.079 40.492 273.133 42.192C274.221 43.892 274.867 45.898 275.071 48.21C275.173 49.502 275.207 50.879 275.173 52.341H257.221C257.289 53.463 257.595 54.466 258.139 55.35C258.683 56.234 259.38 56.931 260.23 57.441C261.114 57.917 262.066 58.155 263.086 58.155H263.392C264.616 58.155 265.653 57.849 266.503 57.237C267.387 56.625 267.965 55.86 268.237 54.942H274.816C274.204 57.492 272.878 59.566 270.838 61.164C268.798 62.762 266.231 63.561 263.137 63.561ZM268.594 47.241C268.492 46.221 268.203 45.354 267.727 44.64C267.251 43.892 266.622 43.331 265.84 42.957C265.058 42.549 264.191 42.345 263.239 42.345H262.933C261.505 42.345 260.281 42.77 259.261 43.62C258.241 44.47 257.612 45.677 257.374 47.241H268.594ZM277.256 37.5H284.294L291.485 59.532H290.567L297.707 37.5H304.541L295.718 63H286.079L277.256 37.5ZM318.868 63.561C316.59 63.561 314.499 63.017 312.595 61.929C310.725 60.807 309.246 59.243 308.158 57.237C307.07 55.197 306.526 52.868 306.526 50.25C306.526 47.666 307.053 45.371 308.107 43.365C309.161 41.325 310.623 39.744 312.493 38.622C314.397 37.5 316.522 36.939 318.868 36.939C321.01 36.939 322.948 37.398 324.682 38.316C326.416 39.2 327.81 40.492 328.864 42.192C329.952 43.892 330.598 45.898 330.802 48.21C330.904 49.502 330.938 50.879 330.904 52.341H312.952C313.02 53.463 313.326 54.466 313.87 55.35C314.414 56.234 315.111 56.931 315.961 57.441C316.845 57.917 317.797 58.155 318.817 58.155H319.123C320.347 58.155 321.384 57.849 322.234 57.237C323.118 56.625 323.696 55.86 323.968 54.942H330.547C329.935 57.492 328.609 59.566 326.569 61.164C324.529 62.762 321.962 63.561 318.868 63.561ZM324.325 47.241C324.223 46.221 323.934 45.354 323.458 44.64C322.982 43.892 322.353 43.331 321.571 42.957C320.789 42.549 319.922 42.345 318.97 42.345H318.664C317.236 42.345 316.012 42.77 314.992 43.62C313.972 44.47 313.343 45.677 313.105 47.241H324.325ZM336.394 27.3H343.024V63H336.394V27.3ZM361.416 63.561C358.968 63.561 356.741 62.983 354.735 61.827C352.763 60.637 351.216 59.039 350.094 57.033C348.972 54.993 348.411 52.715 348.411 50.199C348.411 47.717 348.972 45.473 350.094 43.467C351.216 41.427 352.763 39.829 354.735 38.673C356.741 37.517 358.968 36.939 361.416 36.939C363.898 36.939 366.125 37.517 368.097 38.673C370.069 39.829 371.616 41.427 372.738 43.467C373.86 45.473 374.421 47.717 374.421 50.199C374.421 52.715 373.86 54.993 372.738 57.033C371.616 59.039 370.069 60.637 368.097 61.827C366.125 62.983 363.898 63.561 361.416 63.561ZM361.518 58.053C362.742 58.053 363.83 57.73 364.782 57.084C365.734 56.438 366.465 55.52 366.975 54.33C367.485 53.14 367.74 51.763 367.74 50.199C367.74 48.635 367.485 47.275 366.975 46.119C366.465 44.929 365.734 44.028 364.782 43.416C363.83 42.77 362.742 42.447 361.518 42.447H361.263C360.073 42.447 359.002 42.77 358.05 43.416C357.098 44.028 356.35 44.929 355.806 46.119C355.296 47.275 355.041 48.635 355.041 50.199C355.041 51.763 355.296 53.14 355.806 54.33C356.35 55.52 357.098 56.438 358.05 57.084C359.002 57.73 360.073 58.053 361.263 58.053H361.518ZM379.823 37.5H386.453V40.713C387.065 39.659 388.051 38.775 389.411 38.061C390.805 37.347 392.369 36.99 394.103 36.99C396.313 36.99 398.285 37.551 400.019 38.673C401.787 39.761 403.164 41.325 404.15 43.365C405.136 45.371 405.629 47.666 405.629 50.25C405.629 52.868 405.119 55.197 404.099 57.237C403.113 59.243 401.736 60.807 399.968 61.929C398.2 63.051 396.194 63.612 393.95 63.612C392.25 63.612 390.737 63.272 389.411 62.592C388.119 61.912 387.133 61.062 386.453 60.042V73.2H379.823V37.5ZM392.879 58.155C394.069 58.155 395.123 57.832 396.041 57.186C396.993 56.54 397.724 55.622 398.234 54.432C398.778 53.242 399.05 51.865 399.05 50.301C399.05 48.737 398.778 47.36 398.234 46.17C397.724 44.98 396.993 44.062 396.041 43.416C395.123 42.77 394.069 42.447 392.879 42.447H392.624C391.468 42.447 390.414 42.77 389.462 43.416C388.51 44.062 387.762 44.98 387.218 46.17C386.674 47.36 386.402 48.737 386.402 50.301C386.402 51.831 386.674 53.208 387.218 54.432C387.762 55.622 388.51 56.54 389.462 57.186C390.414 57.832 391.468 58.155 392.624 58.155H392.879ZM421.964 63.561C419.686 63.561 417.595 63.017 415.691 61.929C413.821 60.807 412.342 59.243 411.254 57.237C410.166 55.197 409.622 52.868 409.622 50.25C409.622 47.666 410.149 45.371 411.203 43.365C412.257 41.325 413.719 39.744 415.589 38.622C417.493 37.5 419.618 36.939 421.964 36.939C424.106 36.939 426.044 37.398 427.778 38.316C429.512 39.2 430.906 40.492 431.96 42.192C433.048 43.892 433.694 45.898 433.898 48.21C434 49.502 434.034 50.879 434 52.341H416.048C416.116 53.463 416.422 54.466 416.966 55.35C417.51 56.234 418.207 56.931 419.057 57.441C419.941 57.917 420.893 58.155 421.913 58.155H422.219C423.443 58.155 424.48 57.849 425.33 57.237C426.214 56.625 426.792 55.86 427.064 54.942H433.643C433.031 57.492 431.705 59.566 429.665 61.164C427.625 62.762 425.058 63.561 421.964 63.561ZM427.421 47.241C427.319 46.221 427.03 45.354 426.554 44.64C426.078 43.892 425.449 43.331 424.667 42.957C423.885 42.549 423.018 42.345 422.066 42.345H421.76C420.332 42.345 419.108 42.77 418.088 43.62C417.068 44.47 416.439 45.677 416.201 47.241H427.421ZM439.489 37.5H446.068V42.243C446.612 40.713 447.547 39.489 448.873 38.571C450.199 37.653 451.78 37.194 453.616 37.194H454.738V43.314H452.902C450.726 43.314 449.043 43.977 447.853 45.303C446.697 46.629 446.119 48.499 446.119 50.913V63H439.489V37.5ZM485.683 63.459C482.215 63.459 479.189 62.694 476.605 61.164C474.021 59.6 472.032 57.441 470.638 54.687C469.244 51.899 468.547 48.72 468.547 45.15C468.547 41.614 469.244 38.452 470.638 35.664C472.066 32.876 474.072 30.7 476.656 29.136C479.274 27.572 482.283 26.79 485.683 26.79C488.607 26.79 491.191 27.334 493.435 28.422C495.713 29.476 497.532 30.972 498.892 32.91C500.252 34.814 501.051 37.024 501.289 39.54H494.302C493.894 37.466 492.942 35.851 491.446 34.695C489.984 33.539 488.148 32.961 485.938 32.961H485.479C483.541 32.961 481.824 33.471 480.328 34.491C478.832 35.511 477.659 36.939 476.809 38.775C475.993 40.611 475.585 42.736 475.585 45.15C475.585 47.564 475.993 49.689 476.809 51.525C477.659 53.361 478.832 54.789 480.328 55.809C481.824 56.795 483.541 57.288 485.479 57.288H485.938C488.148 57.288 489.984 56.71 491.446 55.554C492.908 54.398 493.843 52.783 494.251 50.709H501.289C501.051 53.191 500.252 55.401 498.892 57.339C497.532 59.243 495.713 60.739 493.435 61.827C491.157 62.915 488.573 63.459 485.683 63.459ZM518.201 63.561C515.753 63.561 513.526 62.983 511.52 61.827C509.548 60.637 508.001 59.039 506.879 57.033C505.757 54.993 505.196 52.715 505.196 50.199C505.196 47.717 505.757 45.473 506.879 43.467C508.001 41.427 509.548 39.829 511.52 38.673C513.526 37.517 515.753 36.939 518.201 36.939C520.683 36.939 522.91 37.517 524.882 38.673C526.854 39.829 528.401 41.427 529.523 43.467C530.645 45.473 531.206 47.717 531.206 50.199C531.206 52.715 530.645 54.993 529.523 57.033C528.401 59.039 526.854 60.637 524.882 61.827C522.91 62.983 520.683 63.561 518.201 63.561ZM518.303 58.053C519.527 58.053 520.615 57.73 521.567 57.084C522.519 56.438 523.25 55.52 523.76 54.33C524.27 53.14 524.525 51.763 524.525 50.199C524.525 48.635 524.27 47.275 523.76 46.119C523.25 44.929 522.519 44.028 521.567 43.416C520.615 42.77 519.527 42.447 518.303 42.447H518.048C516.858 42.447 515.787 42.77 514.835 43.416C513.883 44.028 513.135 44.929 512.591 46.119C512.081 47.275 511.826 48.635 511.826 50.199C511.826 51.763 512.081 53.14 512.591 54.33C513.135 55.52 513.883 56.438 514.835 57.084C515.787 57.73 516.858 58.053 518.048 58.053H518.303ZM536.609 37.5H543.239V40.662C543.953 39.506 544.922 38.605 546.146 37.959C547.404 37.279 548.832 36.939 550.43 36.939C552.198 36.939 553.762 37.296 555.122 38.01C556.516 38.724 557.638 39.778 558.488 41.172C559.406 39.812 560.579 38.775 562.007 38.061C563.435 37.313 565.016 36.939 566.75 36.939C568.654 36.939 570.32 37.33 571.748 38.112C573.176 38.894 574.264 40.016 575.012 41.478C575.794 42.94 576.185 44.64 576.185 46.578V63H569.555V47.649C569.555 46.595 569.385 45.694 569.045 44.946C568.705 44.164 568.195 43.569 567.515 43.161C566.869 42.753 566.087 42.549 565.169 42.549H564.965C563.469 42.549 562.211 43.161 561.191 44.385C560.205 45.609 559.712 47.173 559.712 49.077V63H553.082V47.751C553.082 46.697 552.912 45.779 552.572 44.997C552.232 44.215 551.722 43.62 551.042 43.212C550.396 42.77 549.614 42.549 548.696 42.549H548.492C546.996 42.549 545.738 43.161 544.718 44.385C543.732 45.609 543.239 47.173 543.239 49.077V63H536.609V37.5ZM582.877 37.5H589.507V40.662C590.221 39.506 591.19 38.605 592.414 37.959C593.672 37.279 595.1 36.939 596.698 36.939C598.466 36.939 600.03 37.296 601.39 38.01C602.784 38.724 603.906 39.778 604.756 41.172C605.674 39.812 606.847 38.775 608.275 38.061C609.703 37.313 611.284 36.939 613.018 36.939C614.922 36.939 616.588 37.33 618.016 38.112C619.444 38.894 620.532 40.016 621.28 41.478C622.062 42.94 622.453 44.64 622.453 46.578V63H615.823V47.649C615.823 46.595 615.653 45.694 615.313 44.946C614.973 44.164 614.463 43.569 613.783 43.161C613.137 42.753 612.355 42.549 611.437 42.549H611.233C609.737 42.549 608.479 43.161 607.459 44.385C606.473 45.609 605.98 47.173 605.98 49.077V63H599.35V47.751C599.35 46.697 599.18 45.779 598.84 44.997C598.5 44.215 597.99 43.62 597.31 43.212C596.664 42.77 595.882 42.549 594.964 42.549H594.76C593.264 42.549 592.006 43.161 590.986 44.385C590 45.609 589.507 47.173 589.507 49.077V63H582.877V37.5ZM637.867 63.561C636.031 63.561 634.433 63.153 633.073 62.337C631.747 61.521 630.71 60.382 629.962 58.92C629.248 57.424 628.891 55.673 628.891 53.667V37.5H635.521V52.341C635.521 54.143 635.861 55.52 636.541 56.472C637.221 57.39 638.275 57.849 639.703 57.849H639.805C641.403 57.849 642.661 57.237 643.579 56.013C644.497 54.789 644.956 52.885 644.956 50.301V37.5H651.586V63H644.956V59.991C644.242 61.113 643.29 61.997 642.1 62.643C640.91 63.255 639.499 63.561 637.867 63.561ZM658.531 37.5H665.161V40.509C665.875 39.387 666.861 38.52 668.119 37.908C669.377 37.262 670.839 36.939 672.505 36.939C674.341 36.939 675.956 37.347 677.35 38.163C678.744 38.979 679.815 40.152 680.562 41.682C681.345 43.178 681.736 44.912 681.736 46.884V63H675.106V48.159C675.106 46.969 674.936 45.966 674.596 45.15C674.256 44.334 673.746 43.722 673.066 43.314C672.42 42.872 671.604 42.651 670.618 42.651H670.516C668.986 42.651 667.711 43.263 666.691 44.487C665.671 45.711 665.161 47.292 665.161 49.23V63H658.531V37.5ZM688.413 37.5H695.043V63H688.413V37.5ZM691.677 34.287C690.589 34.287 689.637 33.896 688.821 33.114C688.039 32.298 687.648 31.346 687.648 30.258C687.648 29.136 688.039 28.184 688.821 27.402C689.637 26.62 690.606 26.229 691.728 26.229C692.816 26.229 693.751 26.62 694.533 27.402C695.349 28.184 695.757 29.136 695.757 30.258C695.757 31.346 695.349 32.298 694.533 33.114C693.751 33.896 692.799 34.287 691.677 34.287ZM712.109 63C709.661 63 707.808 62.371 706.55 61.113C705.292 59.821 704.663 57.968 704.663 55.554V42.855H699.359V37.5H704.663V29.238H711.242V37.5H717.056V42.855H711.242V54.432C711.242 55.554 711.446 56.336 711.854 56.778C712.296 57.186 713.095 57.39 714.251 57.39H717.77V63H712.109ZM720.329 67.488H725.225C726.313 67.488 727.146 67.301 727.724 66.927C728.336 66.553 728.812 65.924 729.152 65.04L731.855 57.951L730.835 61.929L718.799 37.5H726.245L735.221 56.013H732.62L739.76 37.5H747.104L735.272 67.182C734.388 69.392 733.249 70.939 731.855 71.823C730.461 72.741 728.642 73.2 726.398 73.2H720.329V67.488Z" fill="white"/>
</svg>
