<svg xmlns="http://www.w3.org/2000/svg" width="218" height="32" fill="none" viewBox="0 0 218 32">
  <path fill="#fff" d="M15.911 1c8.235 0 14.911 6.716 14.911 15 0 8.284-6.676 15-14.91 15C7.675 31 1 24.284 1 16 1 7.716 7.676 1 15.911 1Zm-1.35 5.92a9.183 9.183 0 0 0-4.635 2.151 9.125 9.125 0 0 0-2.336 3.15 9.178 9.178 0 0 0-.804 3.847c.003-.008.915-2.872 2.058-3.136a1.11 1.11 0 0 1 .97.207 1.108 1.108 0 0 1 .416.907v6.742c0 .683-.437.834-.842.826a3.537 3.537 0 0 1-.808-.153 9.129 9.129 0 0 0 3.172 2.71 9.07 9.07 0 0 0 4.039 1.01l2.47-2.497 1.465 1.656c3.646-1.732 4.788-4.932 5.047-6.18-1.334 1.373-2.808 2.765-3.8 1.802 0 0-.055-5.143-.055-7.252 0-2.836 2.674-4.95 2.674-4.95-1.47.263-3.236.79-5.11 2.64-.17.17-.33.346-.48.532-.803-.619-1.845-.433-1.845-.433.563.31 1.124 1.217 1.124 1.966v7.364c-.025.022-1.235 1.085-2.17 1.085a1.335 1.335 0 0 1-1.093-.557 1.458 1.458 0 0 1-.185-.32v-9.1c-.28.232-1.224.424-1.224-1.153 0-.98.703-2.147 1.951-2.863Zm158.936 2.685c2.949 0 5.079 1.046 6.323 2.212l-2.539 1.886c-1.023-.926-2.096-1.337-3.698-1.337-2.898 0-4.482 1.286-4.482 3.635 0 2.366 1.635 3.652 4.532 3.652 1.466 0 2.626-.291 3.462-1.063v-1.08h-3.955v-2.451h7.174v4.68c-1.278 1.594-3.63 2.657-6.817 2.657-4.891 0-7.925-2.332-7.925-6.395s3.033-6.395 7.925-6.396ZM41.752 16.068c0 2.092 1.16 3.447 3.46 3.447s3.443-1.355 3.443-3.447V10h3.477v6.344c0 3.652-2.472 6.052-6.92 6.052s-6.937-2.4-6.937-6.052V9.999h3.477v6.07ZM79.4 10c3.051 0 5.42 1.354 5.42 4.098 0 2.006-1.261 3.275-3.135 3.823L85.196 22h-4.04l-3.153-3.79h-3.51V22h-3.46V9.999H79.4Zm36.904 12.002h-3.698l-1.125-2.298h-6.543l-1.126 2.298h-3.648L106.334 10h3.801l6.169 12.002Zm69.535 0h-3.476V9.999h3.476v12.002ZM65.197 17.337V9.999h3.357V22h-3.05L57.8 14.113V22h-3.358V9.999h3.682l7.073 7.338Zm34.011-4.663H90.09v1.972h7.516V17.2H90.09v2.125h9.305V22h-12.73V9.999h12.543v2.675Zm21.647 6.515h8.029V22h-11.505V9.999h3.476v9.19Zm26.707-6.515h-9.118v1.972h7.517V17.2h-7.517v2.125h9.306V22h-12.731V9.999h12.543v2.675Zm12.857 4.663V9.999h3.357V22h-3.05l-7.704-7.887V22h-3.358V9.999h3.681l7.074 7.338Zm38.617 0V9.999h3.359V22h-3.052l-7.702-7.887V22h-3.359V9.999h3.681l7.073 7.338Zm18.38-4.663h-9.119v1.972h7.517V17.2h-7.517v2.125h9.307V22h-12.733V9.999h12.545v2.675Zm-111.287 4.543h4.142l-2.062-4.252-2.08 4.252Zm-31.653-1.542h4.67c1.243 0 2.147-.345 2.147-1.51s-.904-1.508-2.148-1.508h-4.67v3.018Z"/>
</svg>
